<?xml version="1.0" encoding="UTF-8"?>

<svg width="752pt" height="752pt" version="1.1" viewBox="0 0 752 752" xmlns="http://www.w3.org/2000/svg" fill="#9e9e9e">
 <path d="m543.73 361.2h29.598l0.003906 182.52c-0.011719 7.8477-3.1328 15.371-8.6797 20.922-5.5508 5.5469-13.074 8.668-20.922 8.6797h-335.45c-7.8477-0.011719-15.371-3.1328-20.918-8.6797-5.5508-5.5508-8.6719-13.074-8.6797-20.922v-335.45c0.007813-7.8477 3.1289-15.371 8.6797-20.918 5.5469-5.5508 13.07-8.6719 20.918-8.6797h182.53v29.598h-182.53v335.45h335.45zm-103.59-152.93h82.664l-226.32 226.33 20.93 20.93 226.32-226.32v82.664h29.598l0.003906-133.2h-133.2z"/>
</svg>
